<?xml version="1.0" encoding="UTF-8"?>
<svg id="Artwork_Logicalis" data-name="Artwork Logicalis" xmlns="http://www.w3.org/2000/svg" viewBox="0 0 283.39 52.33">
  <defs>
    <style>
      .cls-1 {
        fill: #ff1414;
      }

      .cls-2 {
        fill: #5f5f5f;
      }
    </style>
  </defs>
  <g>
    <rect class="cls-2" x="151.84" y="1.36" width="5.76" height="22.41"/>
    <rect class="cls-2" x="247.62" y="1.36" width="5.76" height="22.41"/>
    <polygon class="cls-2" points="69.9 19.12 69.9 1.36 64.13 1.36 64.13 23.78 83.99 23.78 83.99 19.12 69.9 19.12"/>
    <path class="cls-2" d="M205.23.06l-14.57,23.71h6.84l1.65-2.94h12l1.68,2.94h6.95L205.23.06ZM201.61,16.37l3.55-6.26,3.51,6.26h-7.06"/>
    <g>
      <path class="cls-2" d="M283.37,4.93c-.7-.53-4.85-3.96-12.27-3.97-7.42,0-12.08,3.46-12.13,7.22-.07,4.61,5.07,6.05,9.28,6.49,1.54.16,3.31.31,5.17.5,2.55.26,4.07.57,4.07,2.12,0,1.64-3.04,2.29-6.56,2.29-4.57,0-7.53-1.46-9.7-3.04l-3.06,3.8c2.27,1.62,5.91,3.9,12.95,3.89,9.05-.01,12.3-4.12,12.3-7.43,0-3.86-2.77-6.04-9.28-6.67l-4-.42c-3.49-.31-5.29-.83-5.28-1.99,0-1.08,1.89-2.04,6.26-2.03,5.52,0,8.07,1.86,9.4,2.78l2.87-3.52"/>
      <polygon class="cls-2" points="229.14 19.12 229.14 1.36 223.37 1.36 223.37 23.78 243.23 23.78 243.23 19.12 229.14 19.12"/>
      <path class="cls-2" d="M100.44.97c-8.16,0-14.53,4.98-14.54,11.6,0,6.62,6.38,11.63,14.54,11.63s14.53-5,14.54-11.63c0-6.62-6.38-11.6-14.54-11.6M100.44,19.55c-4.97.01-8.64-3.07-8.64-6.98s3.68-6.97,8.64-6.96c4.96-.01,8.64,3.04,8.64,6.96s-3.68,7-8.64,6.98"/>
      <path class="cls-2" d="M145.79,10.86h-12.24v4.49h6.85v2.55c-1.37.84-4.02,1.63-6.85,1.64-4.96.01-8.65-3.03-8.65-6.95s3.68-6.97,8.65-6.96c3.33,0,6.1.83,9.15,3.31l2.92-3.59c-2.83-2.53-6.86-4.39-12.07-4.39-8.16,0-14.54,5.01-14.54,11.63,0,6.62,6.38,11.61,14.54,11.61,4.98,0,9.48-1.94,12.24-4.23v-9.12"/>
      <path class="cls-2" d="M177.33,19.54c-4.96.01-8.64-3.04-8.64-6.96s3.68-6.97,8.64-6.96c3.33,0,6.1.83,9.16,3.31l2.92-3.59c-2.84-2.53-6.87-4.4-12.08-4.4-8.16,0-14.53,5.01-14.53,11.63s6.37,11.64,14.53,11.64c5.21,0,9.24-1.86,12.08-4.39l-2.92-3.59c-3.06,2.49-5.82,3.3-9.16,3.3"/>
      <path class="cls-2" d="M273.11,15.15c-1.51-.15-3.32-.33-4.49-.46"/>
    </g>
  </g>
  <path class="cls-1" d="M52.89,13.65c.6-.81,1.17-2,1.18-3.65.03-4.06-3.49-8.85-13-8.91-4.28-.03-9.6,1.6-13.1,3.18-5.31,2.4-10.15,5.36-16.53,5.36-7.05,0-8.86-2.46-8.85-4.36,0-2.72,3.13-4,5.5-4,1.44,0,3.21.35,5.22,1.6,2.43,1.5,4.02,2.66,5.65,2.66,1.48,0,2.33-.49,2.77-2.07-1.26-.88-5.94-3.45-11.94-3.45C1.42,0,0,4.87,0,7.6c0,1.22.36,2.57,1.19,3.81C.59,12.22.02,13.42,0,15.06c-.03,4.06,3.49,8.85,13,8.91,4.28.03,9.6-1.6,13.1-3.18,5.31-2.4,10.16-5.35,16.54-5.35,7.05,0,8.86,2.46,8.85,4.36,0,2.72-3.13,4-5.5,4-1.44,0-3.2-.35-5.22-1.59-2.44-1.51-4.02-2.67-5.64-2.67-1.48,0-2.33.49-2.78,2.07,1.26.88,5.94,3.45,11.94,3.45,8.37,0,9.79-4.87,9.79-7.6,0-1.22-.36-2.57-1.19-3.81ZM42.31,9.28c-6.78-.08-11.55,2.96-17.39,5.34-4.4,1.8-8.06,3.32-12.64,3.28-7.34-.05-10.5-2.7-10.5-5.23,0-.17.01-.31.03-.46,1.74,1.97,4.88,3.52,9.96,3.58,6.78.08,11.55-2.96,17.39-5.34,4.41-1.79,8.07-3.32,12.64-3.28,7.34.06,10.5,2.71,10.5,5.23,0,.16-.01.31-.03.46-1.74-1.97-4.88-3.52-9.96-3.58Z"/>
  <g>
    <path class="cls-2" d="M75.21,44.8h-7.47l-1.55,3.51h-2.07l6.36-14.05h1.99l6.38,14.05h-2.11l-1.55-3.51ZM74.51,43.19l-3.03-6.89-3.03,6.89h6.06Z"/>
    <path class="cls-2" d="M86.92,37.57v1.87c-.16-.02-.3-.02-.44-.02-2.07,0-3.35,1.26-3.35,3.59v5.3h-1.93v-10.64h1.85v1.79c.68-1.25,2.01-1.89,3.87-1.89Z"/>
    <path class="cls-2" d="M88.58,42.99c0-3.17,2.35-5.42,5.62-5.42,1.91,0,3.49.78,4.34,2.27l-1.47.94c-.68-1.04-1.73-1.53-2.89-1.53-2.09,0-3.65,1.47-3.65,3.73s1.57,3.75,3.65,3.75c1.16,0,2.21-.48,2.89-1.53l1.47.92c-.84,1.49-2.43,2.29-4.34,2.29-3.27,0-5.62-2.27-5.62-5.44Z"/>
    <path class="cls-2" d="M111.11,42.19v6.12h-1.93v-5.9c0-2.09-1.04-3.11-2.87-3.11-2.05,0-3.37,1.22-3.37,3.53v5.48h-1.93v-14.89h1.93v5.76c.8-1.02,2.13-1.61,3.75-1.61,2.59,0,4.42,1.49,4.42,4.62Z"/>
    <path class="cls-2" d="M114.3,34.38c0-.7.56-1.26,1.31-1.26s1.3.54,1.3,1.22c0,.72-.54,1.28-1.3,1.28s-1.31-.54-1.31-1.24ZM114.64,37.67h1.93v10.64h-1.93v-10.64Z"/>
    <path class="cls-2" d="M126.61,47.69c-.58.5-1.47.74-2.33.74-2.15,0-3.37-1.18-3.37-3.33v-5.84h-1.81v-1.59h1.81v-2.33h1.93v2.33h3.05v1.59h-3.05v5.76c0,1.15.6,1.79,1.67,1.79.56,0,1.1-.18,1.51-.5l.6,1.39Z"/>
    <path class="cls-2" d="M138.53,43.64h-8.63c.24,1.87,1.75,3.11,3.85,3.11,1.24,0,2.29-.42,3.07-1.28l1.06,1.25c-.96,1.12-2.43,1.73-4.2,1.73-3.43,0-5.72-2.27-5.72-5.44s2.27-5.42,5.34-5.42,5.26,2.21,5.26,5.48c0,.16-.02.4-.04.58ZM129.9,42.25h6.83c-.2-1.79-1.55-3.05-3.41-3.05s-3.21,1.25-3.41,3.05Z"/>
    <path class="cls-2" d="M140.64,42.99c0-3.17,2.35-5.42,5.62-5.42,1.91,0,3.49.78,4.34,2.27l-1.47.94c-.68-1.04-1.73-1.53-2.89-1.53-2.09,0-3.65,1.47-3.65,3.73s1.57,3.75,3.65,3.75c1.16,0,2.21-.48,2.89-1.53l1.47.92c-.84,1.49-2.43,2.29-4.34,2.29-3.27,0-5.62-2.27-5.62-5.44Z"/>
    <path class="cls-2" d="M159.59,47.69c-.58.5-1.47.74-2.33.74-2.15,0-3.37-1.18-3.37-3.33v-5.84h-1.81v-1.59h1.81v-2.33h1.93v2.33h3.05v1.59h-3.05v5.76c0,1.15.6,1.79,1.67,1.79.56,0,1.1-.18,1.51-.5l.6,1.39Z"/>
    <path class="cls-2" d="M161.16,47.19l.8-1.53c.9.64,2.35,1.1,3.73,1.1,1.79,0,2.53-.54,2.53-1.45,0-2.39-6.72-.32-6.72-4.56,0-1.91,1.71-3.19,4.44-3.19,1.39,0,2.95.36,3.87.96l-.82,1.53c-.96-.62-2.03-.84-3.07-.84-1.69,0-2.51.62-2.51,1.46,0,2.51,6.74.46,6.74,4.6,0,1.93-1.77,3.15-4.6,3.15-1.77,0-3.51-.54-4.4-1.25Z"/>
    <path class="cls-2" d="M178.36,42.99c0-3.17,2.35-5.42,5.54-5.42s5.52,2.25,5.52,5.42-2.33,5.44-5.52,5.44-5.54-2.27-5.54-5.44ZM187.47,42.99c0-2.27-1.53-3.73-3.57-3.73s-3.59,1.47-3.59,3.73,1.55,3.75,3.59,3.75,3.57-1.48,3.57-3.75Z"/>
    <path class="cls-2" d="M194.56,36.75v.92h3.09v1.59h-3.05v9.05h-1.93v-9.05h-1.81v-1.59h1.81v-.94c0-2.07,1.24-3.43,3.51-3.43.82,0,1.63.2,2.17.62l-.58,1.47c-.4-.3-.92-.5-1.48-.5-1.14,0-1.73.64-1.73,1.87Z"/>
    <path class="cls-2" d="M205.24,41.29c0-4.16,3.17-7.19,7.45-7.19,2.17,0,4.06.74,5.34,2.19l-1.3,1.26c-1.08-1.15-2.41-1.67-3.96-1.67-3.17,0-5.52,2.29-5.52,5.4s2.35,5.4,5.52,5.4c1.55,0,2.87-.54,3.96-1.69l1.3,1.26c-1.28,1.45-3.17,2.21-5.36,2.21-4.26,0-7.43-3.03-7.43-7.19Z"/>
    <path class="cls-2" d="M230.7,42.19v6.12h-1.93v-5.9c0-2.09-1.04-3.11-2.87-3.11-2.05,0-3.37,1.22-3.37,3.53v5.48h-1.93v-14.89h1.93v5.76c.8-1.02,2.13-1.61,3.75-1.61,2.59,0,4.42,1.49,4.42,4.62Z"/>
    <path class="cls-2" d="M242.68,41.89v6.42h-1.83v-1.41c-.64.96-1.83,1.53-3.49,1.53-2.41,0-3.93-1.28-3.93-3.13,0-1.71,1.1-3.11,4.28-3.11h3.05v-.38c0-1.63-.94-2.57-2.85-2.57-1.26,0-2.55.44-3.37,1.14l-.8-1.45c1.1-.88,2.69-1.36,4.4-1.36,2.91,0,4.56,1.4,4.56,4.32ZM240.75,45.06v-1.49h-2.97c-1.91,0-2.45.74-2.45,1.65,0,1.06.88,1.73,2.35,1.73s2.59-.66,3.07-1.89Z"/>
    <path class="cls-2" d="M256.33,42.19v6.12h-1.93v-5.9c0-2.09-1.04-3.11-2.87-3.11-2.05,0-3.37,1.22-3.37,3.53v5.48h-1.93v-10.64h1.85v1.61c.78-1.08,2.15-1.71,3.83-1.71,2.59,0,4.42,1.49,4.42,4.62Z"/>
    <path class="cls-2" d="M270.12,37.67v9.19c0,3.75-1.91,5.46-5.52,5.46-1.95,0-3.91-.54-5.08-1.59l.92-1.49c.98.84,2.53,1.39,4.09,1.39,2.51,0,3.65-1.16,3.65-3.57v-.84c-.92,1.1-2.31,1.65-3.83,1.65-3.07,0-5.4-2.09-5.4-5.16s2.33-5.14,5.4-5.14c1.59,0,3.03.58,3.93,1.75v-1.65h1.83ZM268.24,42.71c0-2.07-1.53-3.45-3.65-3.45s-3.67,1.39-3.67,3.45,1.53,3.47,3.67,3.47,3.65-1.43,3.65-3.47Z"/>
    <path class="cls-2" d="M283.35,43.64h-8.63c.24,1.87,1.75,3.11,3.85,3.11,1.24,0,2.29-.42,3.07-1.28l1.06,1.25c-.96,1.12-2.43,1.73-4.19,1.73-3.43,0-5.72-2.27-5.72-5.44s2.27-5.42,5.34-5.42,5.26,2.21,5.26,5.48c0,.16-.02.4-.04.58ZM274.72,42.25h6.82c-.2-1.79-1.55-3.05-3.41-3.05s-3.21,1.25-3.41,3.05Z"/>
  </g>
</svg>